<?xml version="1.0" encoding="UTF-8" standalone="no"?>
<svg
   version="1.2"
   width="228.46001mm"
   height="217.19633mm"
   viewBox="0 0 22846 21719.633"
   preserveAspectRatio="xMidYMid"
   fill-rule="evenodd"
   stroke-width="28.222"
   stroke-linejoin="round"
   xml:space="preserve"
   id="svg1306"
   sodipodi:docname="BigCat2.svg"
   inkscape:version="1.2.2 (732a01da63, 2022-12-09, custom)"
   xmlns:inkscape="http://www.inkscape.org/namespaces/inkscape"
   xmlns:sodipodi="http://sodipodi.sourceforge.net/DTD/sodipodi-0.dtd"
   xmlns="http://www.w3.org/2000/svg"
   xmlns:svg="http://www.w3.org/2000/svg"
   xmlns:ooo="http://xml.openoffice.org/svg/export"><sodipodi:namedview
   id="namedview1308"
   pagecolor="#ffffff"
   bordercolor="#000000"
   borderopacity="0.25"
   inkscape:showpageshadow="2"
   inkscape:pageopacity="0.0"
   inkscape:pagecheckerboard="0"
   inkscape:deskcolor="#d1d1d1"
   inkscape:document-units="mm"
   showgrid="false"
   inkscape:zoom="0.57848045"
   inkscape:cx="420.06605"
   inkscape:cy="416.60872"
   inkscape:window-width="1920"
   inkscape:window-height="1031"
   inkscape:window-x="0"
   inkscape:window-y="25"
   inkscape:window-maximized="1"
   inkscape:current-layer="layer1" />
 <defs
   class="ClipPathGroup"
   id="defs1121">
  <clipPath
   id="presentation_clip_path"
   clipPathUnits="userSpaceOnUse">
   <rect
   x="0"
   y="0"
   width="23310"
   height="23310"
   id="rect1115" />
  </clipPath>
  <clipPath
   id="presentation_clip_path_shrink"
   clipPathUnits="userSpaceOnUse">
   <rect
   x="23"
   y="23"
   width="23264"
   height="23264"
   id="rect1118" />
  </clipPath>
 </defs>
 <defs
   class="TextShapeIndex"
   id="defs1125">
  <g
   ooo:slide="id1"
   ooo:id-list="id3 id4 id5 id6 id7"
   id="g1123" />
 </defs>
 <defs
   class="EmbeddedBulletChars"
   id="defs1157">
  <g
   id="bullet-char-template-57356"
   transform="matrix(4.8828125e-4,0,0,-4.8828125e-4,0,0)">
   <path
   d="M 580,1141 1163,571 580,0 -4,571 Z"
   id="path1127" />
  </g>
  <g
   id="bullet-char-template-57354"
   transform="matrix(4.8828125e-4,0,0,-4.8828125e-4,0,0)">
   <path
   d="M 8,1128 H 1137 V 0 H 8 Z"
   id="path1130" />
  </g>
  <g
   id="bullet-char-template-10146"
   transform="matrix(4.8828125e-4,0,0,-4.8828125e-4,0,0)">
   <path
   d="M 174,0 602,739 174,1481 1456,739 Z M 1358,739 309,1346 659,739 Z"
   id="path1133" />
  </g>
  <g
   id="bullet-char-template-10132"
   transform="matrix(4.8828125e-4,0,0,-4.8828125e-4,0,0)">
   <path
   d="M 2015,739 1276,0 H 717 l 543,543 H 174 v 393 h 1086 l -543,545 h 557 z"
   id="path1136" />
  </g>
  <g
   id="bullet-char-template-10007"
   transform="matrix(4.8828125e-4,0,0,-4.8828125e-4,0,0)">
   <path
   d="m 0,-2 c -7,16 -16,29 -25,39 l 381,530 c -94,256 -141,385 -141,387 0,25 13,38 40,38 9,0 21,-2 34,-5 21,4 42,12 65,25 l 27,-13 111,-251 280,301 64,-25 24,25 c 21,-10 41,-24 62,-43 C 886,937 835,863 770,784 769,783 710,716 594,584 L 774,223 c 0,-27 -21,-55 -63,-84 l 16,-20 C 717,90 699,76 672,76 641,76 570,178 457,381 L 164,-76 c -22,-34 -53,-51 -92,-51 -42,0 -63,17 -64,51 -7,9 -10,24 -10,44 0,9 1,19 2,30 z"
   id="path1139" />
  </g>
  <g
   id="bullet-char-template-10004"
   transform="matrix(4.8828125e-4,0,0,-4.8828125e-4,0,0)">
   <path
   d="M 285,-33 C 182,-33 111,30 74,156 52,228 41,333 41,471 c 0,78 14,145 41,201 34,71 87,106 158,106 53,0 88,-31 106,-94 l 23,-176 c 8,-64 28,-97 59,-98 l 735,706 c 11,11 33,17 66,17 42,0 63,-15 63,-46 V 965 c 0,-36 -10,-64 -30,-84 L 442,47 C 390,-6 338,-33 285,-33 Z"
   id="path1142" />
  </g>
  <g
   id="bullet-char-template-9679"
   transform="matrix(4.8828125e-4,0,0,-4.8828125e-4,0,0)">
   <path
   d="M 813,0 C 632,0 489,54 383,161 276,268 223,411 223,592 c 0,181 53,324 160,431 106,107 249,161 430,161 179,0 323,-54 432,-161 108,-107 162,-251 162,-431 0,-180 -54,-324 -162,-431 C 1136,54 992,0 813,0 Z"
   id="path1145" />
  </g>
  <g
   id="bullet-char-template-8226"
   transform="matrix(4.8828125e-4,0,0,-4.8828125e-4,0,0)">
   <path
   d="m 346,457 c -73,0 -137,26 -191,78 -54,51 -81,114 -81,188 0,73 27,136 81,188 54,52 118,78 191,78 73,0 134,-26 185,-79 51,-51 77,-114 77,-187 0,-75 -25,-137 -76,-188 -50,-52 -112,-78 -186,-78 z"
   id="path1148" />
  </g>
  <g
   id="bullet-char-template-8211"
   transform="matrix(4.8828125e-4,0,0,-4.8828125e-4,0,0)">
   <path
   d="M -4,459 H 1135 V 606 H -4 Z"
   id="path1151" />
  </g>
  <g
   id="bullet-char-template-61548"
   transform="matrix(4.8828125e-4,0,0,-4.8828125e-4,0,0)">
   <path
   d="m 173,740 c 0,163 58,303 173,419 116,115 255,173 419,173 163,0 302,-58 418,-173 116,-116 174,-256 174,-419 0,-163 -58,-303 -174,-418 C 1067,206 928,148 765,148 601,148 462,206 346,322 231,437 173,577 173,740 Z"
   id="path1154" />
  </g>
 </defs>
 
 <g
   inkscape:groupmode="layer"
   id="layer1"
   inkscape:label="Layer 1"
   transform="translate(-229,-638.3668)"><path
     fill="#ffff00"
     stroke="none"
     d="m 14538,7604 88,664 321,219 483,180 533,-99 353,-326 163,-557 -111,-426 z"
     id="path1166"
     style="display:inline;fill:#ff0000" /><path
     fill="#ffff00"
     stroke="none"
     d="m 6864,7288 -128,657 234,310 401,325 536,76 439,-197 332,-476 31,-438 z"
     id="path1173"
     style="display:inline;fill:#ff0000" /><path
     fill="#ffffff"
     stroke="none"
     d="m 11758,14428 -39,-159 67,-504 1344,243 1489,-60 -1164,4513 -3570,56 -1252,-4590 1192,-56 903,-60 786,-88 81,684 68,607 z"
     id="path1180"
     style="display:inline;fill:#ffffff" /><path
     fill="#ffbf00"
     stroke="none"
     d="m 9756,16965 115,1314 260,168 551,-168 1433,150 556,-229 494,229 287,-53 105,-1327 -419,132 -573,392 -1900,31 z m 1993,-2589 1336,626 882,1716 454,-1297 190,-1062 -119,-485 -1971,-45 -732,-61 -62,480 z m -3118,-489 781,2897 291,-529 278,-1455 608,79 662,-304 344,-207 -27,-216 -13,-424 z m 5993,-6482 -212,873 754,317 331,80 595,-172 292,-357 224,-424 -145,-423 z m -7713,-225 -264,384 291,701 503,330 1071,-26 185,-701 14,-304 z m -4067,-5253 3555,881 2233,-964 2122,-1075 2343,441 2315,937 1323,717 3803,-1323 27,2149 -744,2095 -964,910 1268,716 881,1736 -1157,331 1185,1957 -28,1158 -1019,413 -83,1433 -165,1626 -1489,-799 -1157,1130 -1378,1075 -469,3059 -1378,937 -1102,414 -2839,-359 -1461,-358 -799,-2646 -1323,-1736 -1295,-1268 -1654,165 303,-2756 -1433,-138 1185,-3197 -716,-27 -28,-689 965,-1571 689,-551 -414,-607 -1240,-2039 z"
     id="path1187"
     style="display:inline" /><path
     fill="#110f0d"
     stroke="none"
     d="m 11665,4642 c 7,-132 30,-261 59,-388 30,-127 68,-252 114,-375 92,-246 212,-485 387,-709 88,-112 191,-220 321,-316 66,-47 138,-92 220,-128 21,-9 42,-18 63,-26 12,-4 21,-8 34,-12 l 40,-11 c 26,-8 49,-12 74,-17 23,-4 46,-8 68,-11 175,-20 318,-7 458,9 138,17 269,42 398,72 511,122 983,309 1437,533 227,112 448,236 663,372 107,69 213,139 316,216 103,76 207,153 299,247 -510,-70 -998,-168 -1478,-281 -240,-56 -477,-115 -712,-173 -234,-58 -467,-116 -694,-166 -113,-24 -226,-47 -333,-63 -105,-17 -212,-27 -284,-25 l -24,1 -17,1 c -1,0 -3,0 -5,0 -2,0 -7,2 -11,2 -8,1 -16,4 -24,6 -33,9 -71,24 -109,43 -79,39 -163,96 -247,163 -168,135 -334,304 -500,480 -167,178 -332,366 -513,556 z m 2601,14058 c -62,283 -134,565 -228,845 -49,140 -99,279 -182,421 -21,36 -47,73 -79,110 -19,19 -36,38 -65,57 -6,5 -12,9 -20,14 -8,5 -17,9 -26,13 -9,5 -19,9 -28,12 l -16,6 -67,21 -57,14 c -39,10 -76,18 -113,26 -293,63 -580,109 -869,156 -288,46 -575,89 -866,130 -290,-41 -600,-84 -888,-130 -289,-47 -576,-93 -869,-156 -37,-8 -74,-16 -112,-26 l -58,-14 -66,-21 -17,-6 c -9,-3 -18,-7 -27,-12 -9,-4 -18,-8 -27,-13 -7,-5 -13,-9 -20,-14 -28,-19 -45,-38 -65,-57 -32,-37 -58,-74 -79,-110 -83,-142 -133,-281 -182,-421 -94,-280 -166,-562 -227,-845 122,262 254,521 401,764 74,119 153,240 240,330 21,24 42,41 61,54 9,4 18,11 21,9 1,0 2,1 3,1 -1,-2 -1,-3 -2,-3 -1,-1 -1,-2 -2,-2 h 9 l 39,3 50,1 c 32,1 67,1 102,0 279,-3 568,-20 855,-37 279,-18 560,-39 838,-61 v -2 c 4,0 7,0 11,1 4,-1 7,-1 11,-1 v 2 c 278,22 559,43 839,61 286,17 575,34 854,37 35,1 70,1 102,0 l 50,-1 39,-3 h 10 c -1,0 -2,1 -3,2 -1,0 -1,1 -2,3 1,0 2,-1 3,-1 3,2 13,-5 21,-9 19,-13 40,-30 62,-54 86,-90 165,-211 239,-330 148,-243 280,-502 402,-764 z m 3946,-3814 -219,-58 -1226,1283 63,-1492 c 54,-9 108,-17 162,-26 261,-39 524,-74 790,-116 133,-20 266,-41 403,-67 68,-14 138,-27 212,-47 37,-10 75,-21 121,-38 11,-4 25,-10 37,-15 l 22,-10 11,-6 14,-7 14,-9 7,-4 14,-9 c 19,-14 38,-31 54,-49 33,-36 55,-78 68,-115 25,-73 22,-123 20,-163 -3,-39 -9,-69 -16,-96 -13,-53 -29,-94 -44,-133 -32,-77 -65,-143 -99,-206 -44,-84 -89,-163 -135,-240 370,195 717,438 1027,722 81,503 94,1051 47,1518 -787,-466 -1320,-610 -1347,-617 z m -2153,-8 c -49,183 -1207,4497 -1424,5725 -110,621 -1833,955 -2970,987 -1147,-31 -2886,-365 -2996,-987 -217,-1228 -1375,-5542 -1424,-5725 l -31,-115 c 14,4 28,8 41,12 28,8 53,17 77,26 22,9 43,19 51,23 0,1 3,2 1,0 -1,-1 0,-1 -2,-2 -2,-2 -3,-5 -5,-7 l -1,-2 2,2 3,4 6,8 11,16 c 16,20 32,47 47,70 31,51 61,105 89,161 115,225 212,470 307,715 94,246 184,496 270,747 87,250 172,503 257,755 l 251,760 c -35,-265 -77,-529 -125,-792 -23,-131 -47,-263 -73,-394 -27,-131 -53,-263 -82,-394 -57,-261 -120,-522 -191,-782 -71,-261 -151,-519 -255,-779 -27,-65 -57,-130 -91,-197 -18,-33 -33,-65 -56,-100 l -16,-25 -8,-13 -4,-7 -2,-3 -5,-6 c -7,-9 -14,-18 -21,-26 -7,-8 -13,-13 -20,-20 -14,-13 -25,-22 -37,-31 -47,-35 -86,-55 -123,-74 -38,-18 -74,-34 -109,-47 -70,-28 -138,-49 -206,-70 -39,-11 -78,-21 -117,-32 l -419,-1560 c 64,-8 128,-15 192,-21 14,-1 28,-2 42,-3 39,63 82,124 126,183 122,152 263,287 417,406 80,53 158,112 244,155 42,23 83,49 126,69 l 131,60 c 43,20 89,35 133,51 l 135,47 10,3 c 211,975 1122,5019 1835,5595 810,58 1323,46 1602,27 279,19 792,31 1602,-27 713,-576 1624,-4620 1835,-5595 l 10,-3 135,-47 c 44,-16 90,-31 133,-51 l 131,-60 c 43,-20 84,-46 126,-69 86,-43 164,-102 244,-155 154,-119 295,-254 417,-406 44,-59 87,-120 126,-183 14,1 28,2 42,3 64,6 128,13 192,21 l -420,1560 c -38,11 -77,21 -116,32 -68,21 -136,42 -206,70 -35,13 -71,29 -109,47 -37,19 -76,39 -123,74 -12,9 -23,18 -37,31 -7,7 -13,12 -20,20 -7,8 -14,17 -21,26 l -5,6 -2,3 -4,7 -8,13 -16,25 c -23,35 -38,67 -56,100 -34,67 -64,132 -91,197 -104,260 -184,518 -255,779 -71,260 -134,521 -191,782 -29,131 -55,263 -82,394 -26,131 -50,263 -73,394 -48,263 -90,527 -125,792 l 251,-760 c 85,-252 170,-505 257,-755 86,-251 176,-501 270,-747 95,-245 192,-490 307,-715 28,-56 58,-110 89,-161 15,-23 31,-50 47,-70 l 11,-16 4,-5 c -1,1 0,2 -1,2 -2,2 1,1 2,0 7,-4 28,-14 50,-23 24,-9 49,-18 77,-26 13,-4 27,-8 41,-12 z m -136,-59 3,-4 2,-2 -1,2 c -2,2 -3,5 -5,7 -1,0 -1,0 -1,0 z m -10612,9 -219,58 c -27,7 -560,151 -1347,617 -46,-467 -34,-1015 47,-1518 310,-284 657,-527 1027,-722 -46,77 -91,156 -135,240 -34,63 -67,129 -99,206 -15,39 -31,80 -44,133 -7,27 -13,57 -16,96 -2,40 -5,90 20,163 13,37 35,79 68,115 16,18 35,35 54,49 l 14,9 7,4 14,9 14,7 11,6 22,10 c 12,5 26,11 37,15 46,17 84,28 121,38 74,20 144,33 212,47 137,26 270,47 403,67 266,42 529,77 790,116 54,9 108,17 162,26 l 63,1492 z m 1093,-3076 c 15,-1 29,-1 43,-2 40,-1 80,-1 120,-1 3,18 5,36 8,54 28,188 77,375 152,553 7,16 14,31 21,47 -54,8 -108,16 -162,26 z m -2781,-602 c -8,24 -16,50 -22,85 -6,35 -15,76 -1,154 5,21 11,42 22,68 5,11 13,26 21,38 4,7 8,12 10,15 l 9,12 c 32,38 38,40 54,55 l 31,26 25,19 c 64,48 120,85 177,123 l 168,110 c 57,37 114,74 170,111 -297,127 -583,280 -850,460 l -735,-20 c 42,-398 190,-898 412,-1385 203,-36 407,-65 611,-89 -35,64 -69,128 -102,218 z m 507,181 c -1,1 0,-3 1,-8 0,5 -1,6 -1,8 z m 2252,1138 c -202,43 -402,96 -597,161 4,-33 9,-70 3,-126 -3,-29 -10,-64 -27,-104 -16,-39 -45,-84 -83,-119 l -45,-39 -40,-34 c -54,-46 -109,-90 -164,-133 -79,-61 -159,-120 -239,-178 382,-81 771,-126 1161,-143 z m 167,-1092 v 78 c -40,3 -79,5 -118,8 -501,39 -1000,124 -1482,266 -177,-119 -356,-232 -534,-342 l -168,-105 c -27,-16 -54,-33 -80,-49 9,-18 17,-36 27,-54 51,-99 112,-201 175,-303 618,-40 1238,-39 1855,-7 128,7 256,16 384,26 -24,112 -42,226 -51,341 -3,46 -8,94 -8,141 z m -316,-796 c -574,-5 -1149,17 -1720,72 28,-42 55,-84 84,-126 147,-217 298,-433 453,-648 38,-53 76,-105 114,-158 398,45 793,110 1183,195 205,45 409,97 610,155 -23,34 -45,68 -67,103 -79,132 -144,273 -196,419 -154,-6 -307,-10 -461,-12 z M 4047,9648 c 68,1 136,3 204,5 131,4 262,12 393,21 -152,186 -302,374 -448,567 -81,108 -162,217 -240,330 -37,53 -74,107 -110,162 -217,32 -434,69 -649,114 208,-418 470,-815 767,-1115 z m -218,4134 c 60,-295 146,-567 260,-788 l 279,-543 -666,-18 c 248,-135 508,-248 775,-340 98,67 195,134 290,202 105,75 208,152 308,231 38,30 75,61 112,92 -5,10 -10,20 -15,31 -24,51 -53,105 -83,159 -27,48 -56,96 -84,145 -30,15 -60,31 -89,46 -396,212 -763,477 -1087,783 z m 1147,21 c -1,0 0,0 -1,0 l 3,2 z m 1476,311 c -18,-4 -36,-8 -54,-11 -264,-53 -526,-102 -785,-151 -130,-24 -259,-49 -383,-78 -31,-7 -62,-14 -93,-22 14,-26 28,-53 43,-80 60,-107 129,-218 198,-331 69,-113 140,-228 210,-350 34,-59 67,-120 100,-186 231,-71 467,-127 705,-167 z m 3975,581 c -70,-192 -169,-469 -210,-616 l 1282,-264 68,475 c -93,2 -721,15 -875,15 -140,0 -213,167 -265,390 z m 1053,3083 -32,510 c -195,-7 -445,-28 -565,-84 -103,-47 -184,-324 -221,-560 32,10 60,20 77,27 51,21 401,67 741,107 z m -977,66 c 17,71 38,147 64,219 -54,65 -142,133 -250,179 -73,31 -248,90 -367,0 -67,-449 -125,-932 -141,-1205 5,10 11,19 16,28 144,251 359,623 678,779 z M 9114,14005 c 133,0 336,37 647,149 24,89 26,447 -67,1121 -73,528 -154,882 -205,1035 -86,-148 -238,-512 -396,-1027 -199,-653 -263,-1087 -222,-1178 17,-39 72,-100 243,-100 z m 2692,-190 1281,264 c -41,147 -140,424 -210,616 -52,-223 -125,-390 -265,-390 -154,0 -782,-13 -875,-15 z m 2627,290 c 41,91 -23,525 -222,1178 -158,515 -310,879 -396,1027 -51,-153 -132,-507 -205,-1035 -93,-674 -91,-1032 -67,-1121 709,-255 859,-119 890,-49 z m -954,2960 c 5,-9 11,-18 16,-28 -16,273 -74,756 -141,1205 -120,90 -294,31 -367,0 -108,-46 -196,-114 -250,-179 27,-72 47,-148 64,-219 319,-156 534,-528 678,-779 z m -1840,1321 v -683 l 11,96 c 384,-45 855,-103 915,-128 17,-7 46,-17 77,-27 -37,236 -117,513 -221,560 -175,81 -622,89 -780,85 z M 5190,6837 4686,6438 C 3320,5359 2931,3502 3217,2052 c 208,100 402,194 581,282 1185,577 1901,926 2889,994 l 164,12 122,-112 c 540,-494 3293,-1982 4586,-1808 613,-9 1628,256 2739,720 973,407 1798,873 2033,1088 l 122,112 164,-12 c 988,-68 1704,-417 2889,-994 179,-88 373,-182 581,-282 286,1450 -103,3307 -1469,4386 l -504,399 589,255 c 489,212 1330,1198 1716,1930 -497,-12 -860,59 -881,63 l -702,139 235,237 c -6,0 -13,0 -20,0 -187,-2 -375,0 -562,7 -78,-93 -156,-185 -236,-276 l 87,-37 338,-143 c 225,-95 450,-193 674,-290 l 170,-73 -125,-116 -280,-259 -283,-257 c -94,-86 -187,-172 -283,-256 -95,-85 -190,-170 -287,-253 78,101 158,200 237,300 79,100 161,198 241,296 l 242,296 127,152 c -181,55 -361,109 -541,166 l -351,108 -349,111 -248,78 165,223 c 64,86 128,173 191,260 -360,29 -719,74 -1076,135 -261,46 -520,100 -778,167 -19,-19 -39,-38 -59,-56 -35,-29 -70,-60 -106,-88 -30,-21 -60,-42 -90,-62 308,0 615,-59 903,-166 341,-126 657,-324 913,-581 255,-258 446,-579 523,-922 -223,272 -456,504 -720,693 -264,189 -549,337 -850,450 -300,112 -615,189 -937,220 -161,15 -323,19 -487,5 -164,-12 -325,-46 -489,-111 116,133 277,231 446,294 171,64 351,99 532,113 24,1 47,2 71,3 l 38,32 92,93 c 29,33 56,67 84,100 4,5 8,11 12,16 -53,15 -105,30 -157,46 -175,52 -349,113 -522,188 -87,38 -173,80 -260,133 -43,26 -86,56 -130,91 -44,38 -90,78 -132,148 l 333,191 c 3,-8 22,-31 44,-51 25,-22 53,-44 86,-66 64,-42 136,-82 211,-119 150,-74 311,-138 474,-196 77,-27 155,-52 233,-77 24,46 46,92 67,140 48,111 87,226 117,343 -138,8 -277,17 -415,28 -374,33 -748,79 -1124,161 l 92,373 c 344,-91 706,-152 1068,-199 146,-19 293,-35 440,-49 13,110 21,220 22,330 0,65 -3,129 -8,192 -534,-15 -1069,17 -1598,88 l 60,379 c 493,-90 993,-145 1494,-157 -36,159 -82,315 -151,460 -24,50 -50,98 -77,146 -561,-51 -1127,-31 -1685,43 l 61,380 c 467,-85 942,-131 1417,-125 -96,111 -204,212 -321,301 -68,45 -132,96 -205,133 -35,20 -70,42 -107,59 l -112,52 c -36,20 -75,33 -114,48 l -116,44 -120,36 c -40,11 -79,25 -122,34 l -254,59 -127,30 -128,24 c -85,15 -170,32 -256,46 l -257,34 c -343,37 -690,48 -1033,3 -171,-20 -340,-60 -504,-116 -83,-27 -163,-62 -240,-103 l -59,-31 -56,-35 c -37,-24 -72,-50 -106,-80 14,20 -54,1623 -54,1623 0,0 -145,-1543 -88,-1623 -33,30 -70,56 -106,80 l -56,35 -59,31 c -77,41 -157,76 -240,103 -164,56 -333,96 -504,116 -343,45 -689,34 -1033,-3 l -257,-34 c -86,-14 -171,-31 -256,-46 l -128,-24 -127,-30 -254,-59 c -43,-9 -82,-23 -122,-34 l -120,-36 -116,-44 c -39,-15 -78,-28 -114,-48 l -112,-52 c -37,-17 -72,-39 -107,-59 -73,-37 -137,-88 -205,-133 -117,-89 -225,-190 -321,-301 475,-6 950,40 1417,125 l 61,-380 c -558,-74 -1124,-94 -1685,-43 -27,-48 -53,-96 -77,-146 -69,-145 -115,-301 -151,-460 501,12 1001,67 1494,157 l 60,-379 c -529,-71 -1064,-103 -1598,-88 -5,-63 -8,-127 -7,-192 0,-110 7,-220 21,-330 147,14 294,30 440,49 362,47 724,108 1068,199 l 92,-373 c -376,-82 -750,-128 -1124,-161 -139,-11 -277,-20 -415,-28 30,-117 69,-232 117,-343 21,-48 43,-94 67,-140 78,25 156,50 233,77 163,58 324,122 474,196 75,37 147,77 211,119 33,22 61,44 86,66 22,20 41,43 44,51 l 333,-191 c -42,-70 -88,-110 -132,-148 -44,-35 -87,-65 -130,-91 -87,-53 -173,-95 -260,-133 -173,-75 -347,-136 -522,-188 -52,-16 -104,-31 -157,-46 4,-5 8,-11 12,-16 28,-33 55,-67 84,-100 l 92,-93 38,-32 c 24,-1 47,-2 71,-3 181,-14 361,-49 532,-113 169,-63 330,-161 446,-294 -164,65 -325,99 -489,111 -164,14 -326,10 -487,-5 -322,-31 -637,-108 -937,-220 -301,-113 -587,-261 -850,-450 -264,-189 -497,-421 -720,-693 77,343 269,664 523,922 256,257 572,455 913,581 288,107 595,166 903,166 -30,20 -60,41 -90,62 -36,28 -71,59 -106,88 -20,18 -40,37 -59,56 -258,-67 -517,-121 -778,-167 -357,-61 -716,-106 -1076,-135 63,-87 127,-174 191,-260 l 165,-223 -248,-78 -349,-111 -351,-108 c -180,-57 -360,-111 -541,-166 l 127,-152 242,-296 c 80,-98 162,-196 241,-296 79,-100 159,-199 237,-300 -97,83 -192,168 -287,253 -96,84 -189,170 -283,256 l -283,257 -280,259 -125,116 170,73 c 224,97 449,195 674,290 l 338,143 87,37 c -80,91 -158,183 -236,276 -187,-7 -375,-9 -562,-7 -7,0 -14,0 -20,0 l 235,-237 -702,-139 c -21,-5 -384,-75 -881,-63 386,-732 1227,-1718 1716,-1930 z m 14158,3734 c -78,-113 -159,-222 -240,-330 -146,-193 -296,-381 -448,-567 131,-9 262,-17 393,-21 68,-2 136,-4 204,-5 l 83,84 c 297,300 559,697 767,1115 -215,-45 -432,-82 -649,-114 -36,-55 -73,-109 -110,-162 z m -174,760 c 0,-2 -1,-3 -1,-8 1,5 2,9 1,8 z m 13,524 168,-110 c 57,-38 113,-75 177,-123 l 25,-19 31,-26 c 16,-15 22,-17 54,-55 l 9,-12 c 2,-3 6,-8 10,-15 8,-12 16,-27 21,-38 11,-26 17,-47 22,-68 14,-78 5,-119 -1,-154 -6,-35 -14,-61 -22,-85 -33,-90 -67,-154 -102,-218 204,24 408,53 611,89 223,487 370,987 412,1385 l -735,20 c -267,-180 -553,-333 -850,-460 56,-37 113,-74 170,-111 z m -2276,883 c 238,40 474,95 705,167 33,66 66,127 100,186 70,122 141,237 210,350 69,113 138,224 198,331 15,27 29,54 43,80 -31,8 -62,15 -94,22 -123,29 -252,54 -382,78 -259,49 -521,98 -785,151 -18,3 -36,7 -54,11 z m -182,-935 c 3,-18 5,-36 8,-54 40,0 80,0 120,1 14,1 28,2 43,2 l -182,677 c -54,-10 -108,-18 -162,-26 7,-16 14,-31 21,-47 75,-178 124,-365 152,-553 z m 787,701 c -6,56 -1,93 3,126 -195,-65 -395,-118 -597,-161 l 31,-715 c 390,17 779,62 1161,143 -80,58 -160,117 -239,178 -55,43 -110,87 -164,133 l -40,34 -45,39 c -38,35 -67,80 -83,119 -17,40 -24,75 -27,104 z m -1169,-2433 c 201,-58 405,-110 610,-155 390,-85 785,-150 1183,-195 38,53 77,105 114,158 155,215 306,431 453,648 29,42 56,84 84,126 -571,-55 -1146,-77 -1720,-72 -154,2 -307,6 -461,12 -52,-146 -117,-287 -196,-419 -22,-35 -44,-69 -67,-103 z m 408,1306 c 0,-47 -5,-95 -8,-141 -9,-115 -27,-229 -51,-341 128,-10 256,-19 384,-26 617,-32 1237,-33 1855,7 63,102 124,204 175,303 10,18 18,36 27,54 -26,16 -53,33 -80,49 l -168,105 c -178,110 -357,223 -534,342 -482,-142 -981,-227 -1482,-266 -39,-3 -78,-5 -118,-8 z m 1574,2426 c 0,0 0,0 -1,0 l -3,2 h 1 z m 607,-1352 279,543 c 114,221 200,493 260,788 -324,-306 -691,-571 -1087,-783 -29,-15 -59,-31 -89,-46 -28,-49 -57,-97 -84,-145 -30,-54 -59,-108 -83,-159 -5,-11 -10,-21 -15,-31 37,-31 74,-62 112,-92 100,-79 203,-156 308,-231 95,-68 192,-135 290,-202 267,92 527,205 775,340 z m 3433,-517 c -113,-151 -257,-276 -410,-385 -154,-109 -320,-198 -490,-277 -135,-62 -273,-117 -412,-166 -176,-461 -412,-920 -684,-1317 169,3 358,17 555,51 l 537,94 -5,-33 c 241,67 479,148 709,250 324,144 632,326 906,554 -264,-240 -565,-437 -886,-597 -239,-120 -490,-218 -745,-299 l -72,-413 c -132,-763 -1076,-2067 -1883,-2706 622,-622 1064,-1425 1291,-2351 241,-986 217,-2033 -68,-2949 l -131,-421 -399,187 c -378,178 -715,342 -1013,487 -1071,522 -1690,823 -2458,906 C 15878,1929 13163,647 11603,655 10042,468 7412,1906 6589,2548 5823,2465 5204,2164 4135,1643 3837,1498 3500,1334 3122,1156 l -399,-187 -131,421 c -285,916 -309,1963 -68,2949 227,926 669,1729 1291,2351 -807,639 -1751,1943 -1883,2706 l -72,413 c -255,81 -506,179 -745,299 -321,160 -622,357 -886,597 274,-228 583,-410 906,-554 230,-102 468,-183 709,-250 l -5,33 537,-94 c 196,-34 385,-48 554,-50 -271,396 -507,855 -683,1316 -139,49 -277,104 -412,166 -170,79 -336,168 -490,277 -153,109 -297,234 -410,385 -59,74 -105,157 -146,241 -37,87 -67,176 -82,269 -33,185 -15,374 33,553 -40,-181 -49,-369 -10,-549 19,-89 52,-175 91,-257 44,-81 92,-158 151,-227 116,-141 261,-256 413,-355 154,-99 319,-179 488,-249 107,-43 215,-82 324,-117 -200,565 -305,1125 -270,1568 l 28,344 625,17 c -167,189 -318,393 -449,608 -175,287 -315,593 -421,909 121,-311 275,-608 461,-883 154,-228 331,-439 526,-631 l 491,13 c -160,520 -235,1126 -239,1700 -205,347 -370,716 -498,1095 135,-344 301,-677 499,-988 4,460 53,893 141,1238 l 136,533 453,-311 c 627,-429 1134,-653 1401,-755 l 2182,2283 c 283,1111 558,2235 649,2753 120,677 815,1156 2067,1421 842,178 1662,200 1696,201 33,-1 828,-23 1663,-201 1244,-266 1934,-744 2054,-1421 91,-518 366,-1642 649,-2753 l 2182,-2283 c 268,102 775,326 1401,755 l 453,311 136,-533 c 88,-345 137,-778 141,-1238 198,311 364,644 499,988 -128,-379 -293,-748 -498,-1095 -4,-574 -79,-1180 -239,-1700 l 491,-13 c 195,192 372,403 526,631 186,275 340,572 461,883 -106,-316 -246,-622 -421,-909 -131,-215 -282,-419 -449,-608 l 625,-17 28,-344 c 35,-443 -70,-1002 -270,-1568 109,35 217,74 324,117 169,70 334,150 488,249 152,99 297,214 413,355 59,69 107,146 151,227 39,82 72,168 91,257 39,180 30,368 -10,549 48,-179 66,-368 34,-553 -16,-93 -46,-182 -83,-269 -41,-84 -87,-167 -146,-241 z M 17404,5482 c -3,-6 -6,-12 -9,-19 -23,-43 -38,-91 -56,-136 -13,-48 -28,-94 -36,-142 -21,-96 -26,-193 -24,-289 8,-191 55,-376 132,-542 77,-167 178,-318 292,-453 115,-135 243,-256 378,-365 136,-109 279,-206 426,-296 296,-176 607,-319 925,-439 -305,150 -600,321 -872,519 -135,101 -264,208 -384,323 -119,117 -227,242 -321,375 -93,134 -169,277 -221,425 -53,148 -74,303 -67,451 6,74 16,147 39,217 9,35 25,68 37,102 17,32 30,65 50,95 69,119 167,218 278,298 83,-17 169,-48 254,-91 124,-62 245,-145 358,-239 227,-188 432,-415 610,-662 177,-246 332,-512 443,-797 55,-143 99,-290 122,-441 22,-151 19,-309 -37,-455 71,139 92,302 85,459 -7,158 -37,314 -79,467 -84,305 -215,596 -373,872 -158,275 -347,536 -576,770 -115,116 -241,225 -386,318 -86,55 -181,104 -284,141 62,71 120,150 153,243 16,46 27,94 26,142 -2,48 -12,94 -31,135 -3,-91 -38,-167 -88,-226 -51,-61 -115,-109 -183,-152 -137,-85 -290,-148 -445,-205 -313,-112 -640,-197 -968,-270 -329,-73 -662,-135 -996,-179 -167,-22 -335,-39 -503,-44 -84,-2 -168,-1 -252,6 -83,10 -167,23 -248,61 55,-72 136,-124 219,-164 83,-40 171,-68 259,-90 178,-45 358,-64 538,-71 360,-11 717,28 1066,106 255,57 507,135 749,242 z m -5763,6990 c -1,7 -13,15 -14,25 -1,-10 -13,-18 -14,-25 -32,-144 -1649,-801 -1793,-1089 -144,-288 -9,-1503 -9,-1503 0,0 41,686 441,766 400,80 1375,-256 1375,-256 0,0 975,336 1375,256 401,-80 441,-766 441,-766 0,0 136,1215 -8,1503 -145,288 -1762,945 -1794,1089 z m 4431,-4072 c -56,41 -116,75 -180,102 -32,13 -65,26 -99,34 l -50,13 c -17,4 -34,7 -51,9 l -52,7 -52,3 c -17,0 -35,1 -52,1 -17,-1 -35,-2 -52,-3 -34,-2 -68,-9 -102,-15 -35,-6 -68,-17 -100,-27 -131,-44 -250,-119 -341,-217 -91,-98 -157,-216 -187,-340 -31,-123 -28,-251 13,-363 82,223 214,378 370,474 154,97 330,126 495,101 165,-26 322,-110 440,-249 119,-137 197,-327 207,-563 149,188 167,481 50,722 -57,121 -146,229 -257,311 z M 14301,5619 c -647,356 -1008,1336 -1081,2072 -62,48 -119,95 -178,144 -65,54 -130,109 -194,164 -129,111 -255,224 -379,340 -123,117 -244,237 -358,363 -57,63 -112,129 -163,197 -50,69 -98,141 -129,218 63,-54 134,-91 206,-126 73,-34 147,-64 222,-91 151,-55 305,-101 460,-143 155,-42 312,-81 469,-116 75,-17 150,-33 224,-49 338,377 955,670 2374,90 944,-387 1569,-1718 2225,-1942 -1697,-353 -3298,320 -3682,784 -384,465 -1089,-848 -16,-1905 z M 6671,4098 c 92,-94 196,-171 299,-247 103,-77 209,-147 316,-216 215,-136 436,-260 663,-372 454,-224 926,-411 1437,-533 129,-30 260,-55 398,-72 140,-16 283,-29 457,-9 23,3 46,7 69,11 25,5 48,9 74,17 l 40,11 c 13,4 22,8 34,12 21,8 42,17 63,26 82,36 154,81 220,128 130,96 233,204 321,316 175,224 295,463 387,709 46,123 84,248 114,375 29,127 52,256 59,388 -181,-190 -346,-378 -512,-556 -167,-176 -333,-345 -501,-480 -84,-67 -168,-124 -247,-163 -38,-19 -76,-34 -109,-43 -8,-2 -16,-5 -24,-6 -4,0 -9,-2 -11,-2 -2,0 -4,0 -5,0 l -17,-1 -24,-1 c -72,-2 -179,8 -284,25 -107,16 -220,39 -333,63 -227,50 -460,108 -694,166 -235,58 -472,117 -712,173 -480,113 -968,211 -1478,281 z m 4936,1985 h -1 c 2,-1 3,-2 3,-2 z M 8377,4405 c -414,-58 -837,-43 -1239,53 408,-65 824,-48 1222,39 399,86 779,241 1138,432 358,191 696,420 1020,667 317,242 616,504 927,768 22,26 51,51 89,69 49,22 100,26 138,21 40,-4 69,-14 94,-25 13,-5 25,-11 36,-17 l 17,-10 c 6,-4 9,-6 21,-14 l -117,-153 118,152 c 318,-270 624,-539 948,-787 323,-248 660,-477 1019,-668 358,-191 737,-347 1136,-433 398,-88 814,-106 1222,-41 -402,-96 -825,-112 -1239,-54 -415,57 -819,187 -1203,355 -385,168 -751,377 -1101,606 -337,218 -659,458 -976,688 -315,-229 -635,-468 -968,-685 -350,-228 -716,-438 -1100,-607 -384,-168 -787,-298 -1202,-356 z M 5137,6242 c -51,59 -86,135 -89,226 -19,-41 -29,-87 -31,-135 -1,-48 10,-96 26,-142 33,-93 91,-172 153,-243 -103,-37 -198,-86 -284,-141 -145,-93 -271,-202 -386,-318 -229,-234 -418,-495 -576,-770 -158,-276 -289,-567 -373,-872 -42,-153 -72,-309 -79,-467 -7,-157 14,-320 85,-459 -56,146 -59,304 -37,455 23,151 67,298 122,441 111,285 267,551 443,797 178,247 383,474 610,662 113,94 234,177 358,239 85,43 171,74 254,91 111,-80 209,-179 278,-298 20,-30 33,-63 50,-95 12,-34 28,-67 37,-102 23,-70 33,-143 39,-217 7,-148 -14,-303 -67,-451 -52,-148 -128,-291 -221,-425 -94,-133 -202,-258 -321,-375 -120,-115 -249,-222 -384,-323 -272,-198 -567,-369 -872,-519 318,120 629,263 925,439 147,90 290,187 426,296 135,109 263,230 378,365 114,135 216,286 292,453 77,166 124,351 132,542 2,96 -3,193 -24,289 -8,48 -23,94 -36,142 -18,45 -33,93 -56,136 -3,7 -6,13 -9,19 242,-107 494,-185 749,-242 349,-78 706,-117 1066,-106 180,7 360,26 538,71 88,22 176,50 259,90 83,40 164,92 219,164 -81,-38 -165,-51 -248,-61 -84,-7 -168,-8 -252,-6 -168,5 -336,22 -503,44 -334,44 -667,106 -996,179 -328,73 -655,158 -968,270 -155,57 -308,120 -445,205 -68,43 -132,91 -182,152 z m 3226,2065 c -91,98 -210,173 -341,217 -32,10 -65,21 -100,27 -34,6 -68,13 -102,15 -17,1 -35,2 -52,3 -17,0 -35,-1 -52,-1 l -52,-3 -52,-7 c -17,-2 -34,-5 -51,-9 l -50,-13 c -34,-8 -66,-21 -99,-34 -64,-27 -124,-61 -180,-102 -111,-82 -200,-190 -257,-311 -117,-241 -99,-534 50,-722 9,236 88,426 207,563 118,139 275,223 440,249 165,25 341,-4 495,-101 156,-96 288,-251 370,-474 41,112 44,240 13,363 -30,124 -96,242 -187,340 z m 1765,334 c 157,35 314,74 469,116 155,42 309,88 460,143 75,27 150,57 222,91 72,35 143,72 206,126 -31,-77 -79,-149 -129,-218 -51,-68 -106,-134 -163,-197 -114,-126 -235,-246 -358,-363 -124,-116 -250,-229 -379,-340 -64,-55 -129,-110 -194,-164 -59,-49 -116,-96 -178,-144 -73,-736 -434,-1716 -1081,-2072 1073,1057 368,2370 -16,1905 -384,-464 -1985,-1137 -3682,-784 656,224 1281,1555 2225,1942 1419,580 2036,287 2374,-90 75,16 149,32 224,49 z"
     id="path1199"
     style="display:inline" /></g>
</svg>
